<svg data-logo="logo" xmlns="http://www.w3.org/2000/svg" viewBox="0 0 115 42">
            <g style="opacity: 1;" id="logogram" transform="translate(0, 1) rotate(0)"><path d="M13.7544 6.5C13.7544 4.77609 13.0696 3.12278 11.8506 1.90381C10.6316 0.684818 8.9783 0 7.25439 0C5.53048 0 3.87719 0.684818 2.6582 1.90381C1.43921 3.12278 0.754395 4.77609 0.754395 6.5V26.1553L6.10734 29.9908V39.3346H8.40145V29.9908L13.7544 26.1553V6.5ZM11.4603 17.4926L8.40145 20.5515V17.6838L11.4603 14.625V17.4926ZM3.09631 14.625L6.15513 17.6838V20.5515L3.09631 17.4926V14.625ZM11.4603 11.375L7.25439 15.5809L3.04851 11.2794V8.41177L7.25439 12.6176L11.4603 8.41177V11.375ZM7.25439 2.29412C8.17939 2.2982 9.07754 2.60541 9.81126 3.16867C10.545 3.73192 11.0739 4.52016 11.3169 5.41268L7.25439 9.46323L3.19189 5.41268C3.42601 4.51129 3.95107 3.71235 4.68562 3.13985C5.42016 2.56733 6.32311 2.25324 7.25439 2.24631V2.29412ZM3.04851 24.9963V20.6949L6.10734 23.7537V27.171L3.04851 24.9963ZM8.40145 27.1829V23.7537L11.4603 20.6949V24.9844L8.40145 27.1829Z" fill="#000000"></path></g>
            <g style="opacity: 1;" id="logotype" transform="translate(20, 8)"><path fill="#111111" d="M16.82 26.42L16.82 26.42Q15.10 26.42 13.42 25.95Q11.74 25.48 10.34 24.44Q8.94 23.41 8.01 21.78Q7.08 20.16 6.91 17.88L6.91 17.88L11.11 17.88Q11.39 19.66 12.28 20.68Q13.18 21.70 14.42 22.10Q15.66 22.50 16.89 22.50L16.89 22.50Q18.25 22.50 19.32 22.08Q20.39 21.66 21.00 20.87Q21.61 20.09 21.61 19.04L21.61 19.04Q21.61 17.95 21.02 17.09Q20.42 16.23 18.46 15.88L18.46 15.88L14.29 15.11Q11.29 14.55 9.59 12.72Q7.89 10.88 7.89 8.36L7.89 8.36Q7.89 6.05 9.04 4.44Q10.20 2.83 12.16 1.95Q14.12 1.08 16.47 1.08L16.47 1.08Q18.91 1.08 20.88 1.92Q22.84 2.76 24.06 4.49Q25.29 6.22 25.53 8.95L25.53 8.95L21.26 8.95Q21.05 7.38 20.33 6.52Q19.62 5.66 18.62 5.31Q17.62 4.96 16.57 4.96L16.57 4.96Q15.59 4.96 14.54 5.28Q13.49 5.59 12.79 6.31Q12.09 7.03 12.09 8.25L12.09 8.25Q12.09 9.30 12.88 10.13Q13.67 10.95 15.42 11.26L15.42 11.26L19.27 11.96Q22.35 12.52 24.11 14.15Q25.88 15.78 25.88 18.89L25.88 18.89Q25.88 20.75 25.09 22.13Q24.31 23.52 23.01 24.48Q21.72 25.44 20.11 25.93Q18.50 26.42 16.82 26.42ZM36.56 26.42L36.56 26.42Q33.90 26.42 31.87 25.28Q29.84 24.14 28.68 22.13Q27.53 20.12 27.53 17.46L27.53 17.46Q27.53 14.76 28.66 12.66Q29.80 10.56 31.83 9.39Q33.86 8.22 36.56 8.22L36.56 8.22Q39.15 8.22 41.11 9.34Q43.07 10.46 44.17 12.38Q45.27 14.31 45.27 16.76L45.27 16.76Q45.27 17.11 45.27 17.53Q45.27 17.95 45.20 18.41L45.20 18.41L30.82 18.41L30.82 15.60L40.69 15.60Q40.58 13.92 39.43 12.91Q38.27 11.89 36.59 11.89L36.59 11.89Q35.33 11.89 34.28 12.45Q33.23 13.01 32.62 14.12Q32.01 15.22 32.01 16.93L32.01 16.93L32.01 17.91Q32.01 19.38 32.60 20.47Q33.20 21.55 34.21 22.13Q35.23 22.71 36.52 22.71L36.52 22.71Q37.85 22.71 38.76 22.11Q39.67 21.52 40.16 20.54L40.16 20.54L44.78 20.54Q44.29 22.18 43.15 23.53Q42.02 24.88 40.34 25.65Q38.66 26.42 36.56 26.42ZM58.01 26.42L58.01 26.42Q56.05 26.42 54.60 25.68Q53.15 24.95 52.24 23.66L52.24 23.66L52.24 26L47.69 26L47.69 0.80L52.24 0.80L52.24 11.12Q53.08 9.97 54.46 9.09Q55.84 8.22 58.01 8.22L58.01 8.22Q60.46 8.22 62.39 9.41Q64.31 10.60 65.43 12.66Q66.55 14.73 66.55 17.35L66.55 17.35Q66.55 19.95 65.43 22.01Q64.31 24.07 62.39 25.25Q60.46 26.42 58.01 26.42ZM57.00 22.46L57.00 22.46Q58.43 22.46 59.55 21.80Q60.67 21.13 61.30 19.98Q61.93 18.82 61.93 17.35L61.93 17.35Q61.93 15.85 61.30 14.68Q60.67 13.50 59.55 12.84Q58.43 12.17 57.00 12.17L57.00 12.17Q55.56 12.17 54.46 12.84Q53.36 13.50 52.74 14.66Q52.13 15.81 52.13 17.32L52.13 17.32Q52.13 18.82 52.74 19.98Q53.36 21.13 54.46 21.80Q55.56 22.46 57.00 22.46ZM79.08 26.42L79.08 26.42Q77.12 26.42 75.67 25.68Q74.22 24.95 73.30 23.66L73.30 23.66L73.30 26L68.75 26L68.75 0.80L73.30 0.80L73.30 11.12Q74.14 9.97 75.53 9.09Q76.91 8.22 79.08 8.22L79.08 8.22Q81.53 8.22 83.45 9.41Q85.38 10.60 86.50 12.66Q87.62 14.73 87.62 17.35L87.62 17.35Q87.62 19.95 86.50 22.01Q85.38 24.07 83.45 25.25Q81.53 26.42 79.08 26.42ZM78.06 22.46L78.06 22.46Q79.50 22.46 80.62 21.80Q81.74 21.13 82.37 19.98Q83 18.82 83 17.35L83 17.35Q83 15.85 82.37 14.68Q81.74 13.50 80.62 12.84Q79.50 12.17 78.06 12.17L78.06 12.17Q76.63 12.17 75.53 12.84Q74.42 13.50 73.81 14.66Q73.20 15.81 73.20 17.32L73.20 17.32Q73.20 18.82 73.81 19.98Q74.42 21.13 75.53 21.80Q76.63 22.46 78.06 22.46ZM94.34 26L89.79 26L89.79 8.64L94.34 8.64L94.34 26ZM94.30 5.77L89.89 5.77L89.89 1.36L94.30 1.36L94.30 5.77Z"></path></g>
            
          </svg>